<svg id="Data" xmlns="http://www.w3.org/2000/svg" viewBox="0 0 60 60"><path d="M62,11.38V17c0,5.18-13.43,9.38-30,9.38S2,22.18,2,17V11.38C2,6.2,15.43,2,32,2S62,6.2,62,11.38ZM54.66,27.16a32.75,32.75,0,0,0,4.89-1.92A1.64,1.64,0,0,1,62,26.48v9.27c0,5.18-13.43,9.37-30,9.37S2,40.93,2,35.75V26.48a1.65,1.65,0,0,1,2.45-1.24,32.75,32.75,0,0,0,4.89,1.92,78.9,78.9,0,0,0,22.66,3A78.9,78.9,0,0,0,54.66,27.16ZM2,45.23A1.65,1.65,0,0,1,4.45,44a32.75,32.75,0,0,0,4.89,1.92,78.87,78.87,0,0,0,22.66,3,78.87,78.87,0,0,0,22.66-3A32.75,32.75,0,0,0,59.55,44,1.64,1.64,0,0,1,62,45.23v7.39C62,57.8,48.57,62,32,62S2,57.8,2,52.62Z" transform="translate(-2 -2)"/></svg>